Coordinates
version=1
nRows=49
nColumns=12
inDegrees=yes

Units are S.I. units (second, meters, Newtons, ...)
Angles are in degrees

endheader
time	SC_y	SC_z	SC_x	AC_y	AC_z	AC_x	GH_y	GH_z	GH_yy	EL_x	PS_y
       0.0              -34.11          17.81          20.53          49.12          4.821          3.779          74.02          39.08          72.89          20.51          140.7
   0.03549              -34.12          17.81          20.53          49.12           4.82          3.778          73.99          39.08           72.9          20.52          140.6
   0.07098              -34.12          17.81          20.53          49.12           4.82          3.776          73.95          39.09          72.91          20.54          140.6
    0.1065              -34.12          17.82          20.53          49.11          4.819          3.775          73.91          39.09          72.93          20.55          140.6
     0.142              -34.13          17.82          20.53          49.11          4.818          3.773          73.87          39.09          72.94          20.57          140.6
    0.1775              -34.13          17.82          20.53          49.11          4.818          3.771          73.82           39.1          72.96          20.59          140.6
    0.2129              -34.14          17.82          20.53           49.1          4.817           3.77          73.77           39.1          72.97           20.6          140.6
    0.2484              -34.14          17.83          20.53           49.1          4.816          3.768          73.72          39.11          72.99          20.62          140.6
    0.2839              -34.15          17.83          20.53           49.1          4.815          3.766          73.66          39.12          73.01          20.64          140.6
    0.3194              -34.16          17.83          20.53          49.09          4.814          3.763           73.6          39.12          73.03          20.67          140.6
    0.3549              -34.16          17.84          20.53          49.09          4.813          3.761          73.54          39.13          73.05          20.69          140.6
    0.3904              -34.17          17.84          20.53          49.08          4.812          3.758          73.47          39.14          73.07          20.72          140.6
    0.4259              -34.18          17.85          20.53          49.08          4.811          3.756           73.4          39.14          73.09          20.74          140.6
    0.4614              -34.19          17.85          20.53          49.07           4.81          3.753          73.32          39.15          73.12          20.77          140.5
    0.4969              -34.19          17.86          20.53          49.06          4.808          3.749          73.23          39.16          73.15          20.81          140.5
    0.5324               -34.2          17.86          20.53          49.06          4.807          3.746          73.13          39.17          73.18          20.84          140.5
    0.5679              -34.21          17.87          20.53          49.05          4.805          3.742          73.03          39.18          73.21          20.88          140.5
    0.6034              -34.23          17.87          20.53          49.04          4.803          3.738          72.92           39.2          73.25          20.92          140.5
    0.6388              -34.24          17.88          20.53          49.03          4.801          3.733           72.8          39.21          73.29          20.97          140.5
    0.6743              -34.25          17.89          20.53          49.02          4.799          3.728          72.66          39.22          73.33          21.02          140.5
    0.7098              -34.27           17.9          20.53          49.01          4.797          3.723          72.52          39.24          73.38          21.07          140.4
    0.7453              -34.28          17.91          20.53           49.0          4.794          3.717          72.36          39.26          73.43          21.13          140.4
    0.7808               -34.3          17.92          20.53          48.98          4.792           3.71          72.18          39.28          73.49           21.2          140.4
    0.8163              -34.32          17.93          20.53          48.97          4.788          3.702          71.98           39.3          73.55          21.27          140.4
    0.8518              -34.34          17.94          20.53          48.95          4.785          3.694          71.76          39.32          73.62          21.35          140.3
    0.8873              -34.37          17.95          20.53          48.93          4.781          3.685          71.52          39.35           73.7          21.45          140.3
    0.9228               -34.4          17.97          20.53          48.91          4.777          3.675          71.24          39.38          73.79          21.55          140.2
    0.9583              -34.43          17.99          20.53          48.89          4.772          3.663          70.93          39.41          73.89          21.66          140.2
    0.9938              -34.47          18.01          20.53          48.86          4.766           3.65          70.58          39.45           74.0          21.79          140.1
     1.029              -34.51          18.03          20.53          48.83           4.76          3.635          70.19          39.49          74.13          21.94          140.1
     1.065              -34.55          18.06          20.53           48.8          4.753          3.618          69.74          39.54          74.28          22.11          140.0
       1.1              -34.61          18.09          20.53          48.76          4.745          3.599          69.22          39.59          74.44          22.31          139.9
     1.136              -34.67          18.12          20.53          48.71          4.735          3.576          68.62          39.66          74.64          22.53          139.9
     1.171              -34.74          18.16          20.53          48.66          4.724           3.55          67.92          39.73          74.86          22.79          139.8
     1.207              -34.82          18.21          20.53           48.6          4.711           3.52          67.11          39.82          75.13          23.09          139.6
     1.242              -34.92          18.26          20.53          48.53          4.696          3.484          66.15          39.92          75.44          23.45          139.5
     1.278              -35.04          18.33          20.53          48.44          4.678          3.441          65.01          40.04          75.81          23.88          139.3
     1.313              -35.18           18.4          20.53          48.34          4.656           3.39          63.64          40.19          76.25          24.39          139.1
     1.349              -35.35           18.5          20.53          48.21          4.629          3.327          61.98          40.37          76.79          25.01          138.9
     1.384              -35.55          18.61          20.53          48.06          4.597          3.252          59.96          40.59          77.44          25.76          138.6
      1.42              -35.81          18.76          20.54          47.87          4.558          3.158          57.47          40.85          78.25           26.7          138.2
     1.455              -36.13          18.93          20.54          47.64          4.508          3.041          54.35          41.19          79.25          27.86          137.8
     1.491              -36.53          19.16          20.54          47.34          4.446          2.894          50.44          41.61          80.52          29.32          137.2
     1.526              -37.04          19.44          20.54          46.96          4.367          2.708          45.45          42.14          82.14          31.19          136.5
     1.562               -37.7          19.81          20.54          46.48          4.265          2.468          39.08          42.82           84.2          33.57          135.5
     1.597              -38.54          20.28          20.54          45.86          4.135          2.161          30.89           43.7          86.85          36.63          134.3
     1.633              -39.61          20.87          20.55          45.07          3.969          1.769          20.44          44.82          90.23          40.53          132.8
     1.668              -40.96          21.62          20.55          44.08           3.76          1.276          7.295          46.23          94.48          45.45          130.8
     1.704               -42.6          22.54          20.56          42.87          3.505         0.6755         -8.723          47.95          99.67          51.43          128.5
